<svg xmlns="http://www.w3.org/2000/svg" width="1182" height="81"><g fill="#FFF"><path d="M19.206 31.953h157.992c2.063 0 3.435 2.133 2.58 4.01l-6.535 14.347a2.833 2.833 0 0 1-2.579 1.66H39.976a4.253 4.253 0 0 0-4.102 3.131l-.611 2.236a2.836 2.836 0 0 0 2.736 3.582l125.754-.063c2.042-.002 3.415 2.092 2.602 3.965l-6.173 14.211a2.834 2.834 0 0 1-2.604 1.705l-147.203-.208C4.2 80.52.093 74.139 2.642 68.514l16.564-36.561zM23.748 22.639h160.598a2.834 2.834 0 0 0 2.575-1.651l6.607-14.373c.864-1.88-.512-4.022-2.58-4.019l-147.312.238a17.009 17.009 0 0 0-15.478 10.019l-4.41 9.786zM1006.149 31.953h157.992c2.063 0 3.435 2.133 2.58 4.01l-6.535 14.347a2.833 2.833 0 0 1-2.579 1.66H1026.92a4.254 4.254 0 0 0-4.103 3.131l-.61 2.236a2.836 2.836 0 0 0 2.735 3.582l125.754-.063c2.042-.002 3.415 2.092 2.603 3.965l-6.173 14.211a2.834 2.834 0 0 1-2.604 1.705l-147.203-.209c-6.175-.01-10.281-6.391-7.733-12.016l16.563-36.559zM1010.691 22.639h160.598a2.834 2.834 0 0 0 2.575-1.651l6.607-14.373c.864-1.88-.513-4.022-2.58-4.019l-147.313.239a17.01 17.01 0 0 0-15.478 10.019l-4.409 9.785zM809.841 31.323l-17.415 37.316c-2.631 5.637 1.484 12.1 7.706 12.1h17.824a2.836 2.836 0 0 0 2.579-1.658l11.737-25.727a2.836 2.836 0 0 1 2.575-1.658l127.804-.182a2.836 2.836 0 0 0 2.572-1.65l20.331-44.208c.864-1.878-.508-4.019-2.575-4.019h-148.28a17.004 17.004 0 0 0-15.537 10.091l-4.635 10.408h126.361c2.105 0 3.477 2.214 2.538 4.098l-1.391 2.795a4.253 4.253 0 0 1-3.81 2.357l-128.384-.063zM219.686 22.639h161.77a2.834 2.834 0 0 0 2.597-1.701l6.275-14.373c.818-1.873-.554-3.969-2.598-3.969H239.569a17.007 17.007 0 0 0-15.587 10.203l-4.296 9.84zM215.311 31.333l-7.633 16.469c-.871 1.879.502 4.029 2.574 4.027l126.21-.076c2.14-.002 3.509 2.279 2.504 4.168l-1.368 2.568a4.252 4.252 0 0 1-3.763 2.252l-129.877-.32a2.83 2.83 0 0 0-2.525 1.533l-3.294 6.375c-2.925 5.66 1.184 12.408 7.555 12.408h149.543c1.111 0 2.12-.65 2.58-1.66l19.918-43.735c.855-1.877-.517-4.01-2.58-4.01H215.311zM414.764 31.784L397.33 68.592c-2.679 5.656 1.463 12.172 7.721 12.145l146.544-.623a2.834 2.834 0 0 0 2.48-1.482l12.143-22.414c1.026-1.893-.349-4.191-2.5-4.186l-22.457.07a2.835 2.835 0 0 0-2.475 1.471l-3.324 6.053a2.838 2.838 0 0 1-2.487 1.469l-95.447-.086c-2.067-.002-3.438-2.146-2.571-4.023l9.787-21.176c.868-1.879-.504-4.024-2.574-4.024h-27.406zM419.879 22.626l4.797-10.227a17.01 17.01 0 0 1 15.398-9.785h146.984c2.104 0 3.475 2.21 2.539 4.095l-11.93 24.049a2.834 2.834 0 0 1-2.539 1.575h-22.66c-2.135 0-3.504-2.271-2.507-4.158l.685-1.296c.996-1.887-.371-4.156-2.506-4.158l-128.261-.095zM610.728 31.5l-17.347 37.135c-2.634 5.637 1.481 12.102 7.704 12.102l17.756.002a2.836 2.836 0 0 0 2.592-1.688l11.382-25.693a2.836 2.836 0 0 1 2.594-1.689h93.377c2.072 0 3.444 2.148 2.571 4.027l-9.758 21.014c-.873 1.879.499 4.029 2.57 4.029h25.587a2.835 2.835 0 0 0 2.568-1.635l33.851-72.455c.878-1.879-.492-4.034-2.567-4.034H634.954a17.007 17.007 0 0 0-15.348 9.681l-4.712 9.871h128.88c2.115 0 3.484 2.233 2.526 4.118l-1.883 3.707a4.252 4.252 0 0 1-3.816 2.326L610.728 31.5z"/></g></svg>