<svg xmlns="http://www.w3.org/2000/svg" width="522" height="136" viewBox="-40 0 522 136"><g fill="#FFFFFF"><path d="M3.256 40.058H213.51c2.719 0 4.528 2.813 3.401 5.287L208.186 64.5a3.736 3.736 0 0 1-3.401 2.189H31.135a5.978 5.978 0 0 0-5.768 4.404l-.76 2.779a3.739 3.739 0 0 0 3.607 4.723l167.407-.082c2.691-.002 4.501 2.758 3.429 5.227l-8.243 18.977a3.739 3.739 0 0 1-3.434 2.248l-197.184-.281c-7.599-.01-12.652-7.863-9.516-14.783L3.256 40.058zM9.299 27.666h213.689a3.74 3.74 0 0 0 3.396-2.177l8.819-19.191c1.14-2.479-.673-5.303-3.401-5.298l-196.175.319a22.422 22.422 0 0 0-20.405 13.208L9.299 27.666zM248.95 39.781l-23.216 50.293c-3.2 6.934 1.863 14.848 9.501 14.848h23.832c1.461 0 2.787-.85 3.396-2.174l26.523-57.668c1.137-2.476-.672-5.299-3.396-5.299h-36.64z"/><path d="M254.518 27.622h81.154c2.732 0 4.541 2.836 3.389 5.313l-31.027 66.672c-1.152 2.48.658 5.314 3.389 5.314h33.865a3.734 3.734 0 0 0 3.396-2.178l33.467-72.965a3.737 3.737 0 0 1 3.396-2.18h37.287c2.734 0 4.543 2.84 3.387 5.317l-31.1 66.69c-1.156 2.479.652 5.314 3.387 5.314h34.008a3.74 3.74 0 0 0 3.389-2.158l44.832-96.149c1.156-2.478-.652-5.317-3.387-5.317H281.186a22.423 22.423 0 0 0-20.262 12.817l-6.406 13.51zM-35.02 124.922h29.202a.294.294 0 0 0 .27-.174l1.393-3.025a.298.298 0 0 0-.27-.422h-27.032a2.97 2.97 0 0 0-2.7 1.734l-.863 1.887zM-35.814 126.611l-3.049 6.662a1.494 1.494 0 0 0 1.357 2.115l26.834.041c.117 0 .225-.07.271-.178l1.318-2.996a.299.299 0 0 0-.271-.418l-23.187.012a.446.446 0 0 1-.424-.582l.17-.529a.743.743 0 0 1 .706-.514h23.794a.299.299 0 0 0 .27-.174l1.385-3.018a.298.298 0 0 0-.27-.422h-28.904zM.204 124.902h5.774l1.435-3.131a.297.297 0 0 0-.27-.42H3.787a2.97 2.97 0 0 0-2.669 1.67l-.914 1.881zM-.484 126.576l-3.167 6.721a1.495 1.495 0 0 0 1.352 2.133h26.91c.12 0 .228-.072.274-.184l1.238-2.998a.297.297 0 0 0-.274-.41l-22.614.012a.3.3 0 0 1-.27-.424l2.061-4.428a.297.297 0 0 0-.269-.422H-.484zM34.547 124.922h29.202a.29.29 0 0 0 .269-.174l1.393-3.025a.298.298 0 0 0-.27-.422H38.109a2.967 2.967 0 0 0-2.699 1.734l-.863 1.887zM33.752 126.611l-3.049 6.662c-.452.99.27 2.115 1.357 2.115l26.834.041a.294.294 0 0 0 .272-.178l1.317-2.996a.298.298 0 0 0-.271-.418l-23.186.012a.446.446 0 0 1-.425-.582l.171-.529a.743.743 0 0 1 .706-.514h23.794a.297.297 0 0 0 .27-.174l1.385-3.018a.298.298 0 0 0-.27-.422H33.752zM69.06 126.555l-3.188 6.73a1.495 1.495 0 0 0 1.357 2.135l26.738-.115a.295.295 0 0 0 .259-.152l2.436-4.494a.299.299 0 0 0-.264-.439l-4.558.016a.297.297 0 0 0-.259.152l-.725 1.322a.296.296 0 0 1-.262.152l-17.751-.014a.299.299 0 0 1-.269-.424l2.056-4.449a.295.295 0 0 0-.269-.42H69.06zM104.915 124.902h29.267a.301.301 0 0 0 .261-.156l1.656-3.037a.298.298 0 0 0-.262-.439h-27.29a2.973 2.973 0 0 0-2.664 1.66l-.968 1.972zM116.07 126.539l-3.16 6.764c-.463.99.26 2.127 1.354 2.127h3.235a.298.298 0 0 0 .271-.174l3.785-8.297a.296.296 0 0 0-.269-.42h-5.216zM141.818 122.998l-.885 1.928h24.1c.227 0 .37.246.257.445l-.62 1.092a.295.295 0 0 1-.258.148l-24.231-.041-3.157 6.73a1.495 1.495 0 0 0 1.355 2.129h3.387a.296.296 0 0 0 .271-.176l2.187-4.855a.294.294 0 0 1 .271-.174h17.193c.217 0 .36.225.269.422l-2.038 4.361a.298.298 0 0 0 .271.422h5.08c.115 0 .22-.066.269-.172l2.123-4.564s.231-.742-.625-.963c0 0 1.257-.27 2.283-2.537a690.338 690.338 0 0 0 2.405-5.51.296.296 0 0 0-.272-.414h-26.937a2.97 2.97 0 0 0-2.698 1.729M175.64 124.861h5.775l1.435-3.129a.297.297 0 0 0-.27-.42h-3.357a2.964 2.964 0 0 0-2.667 1.67l-.916 1.879zM174.782 126.604l-3.091 6.705a1.495 1.495 0 0 0 1.358 2.121h3.287a.299.299 0 0 0 .27-.174l3.763-8.232a.296.296 0 0 0-.27-.42h-5.317zM187.268 126.557l-3.189 6.73a1.494 1.494 0 0 0 1.358 2.133l26.739-.113a.298.298 0 0 0 .258-.154l2.435-4.492a.298.298 0 0 0-.262-.439l-4.559.016a.292.292 0 0 0-.259.152l-.725 1.32a.292.292 0 0 1-.261.152l-17.751-.014a.297.297 0 0 1-.269-.422l2.056-4.449a.295.295 0 0 0-.269-.42h-5.302zM240.441 126.539l-3.158 6.764c-.464.99.26 2.127 1.354 2.127h3.233a.3.3 0 0 0 .271-.174l3.785-8.297a.297.297 0 0 0-.271-.42h-5.214z"/><path d="M241.148 124.924h11.364c.219 0 .361.225.27.422l-3.7 7.959a1.495 1.495 0 0 0 1.357 2.125h3.179a.296.296 0 0 0 .27-.172l4.674-10.162a.292.292 0 0 1 .268-.172l5.506-.01a.297.297 0 0 1 .27.422l-3.686 7.973a1.494 1.494 0 0 0 1.355 2.121h3.209a.292.292 0 0 0 .268-.172l6.289-13.467a.297.297 0 0 0-.27-.422h-27.063a2.97 2.97 0 0 0-2.683 1.699l-.877 1.856zM275.961 126.619l-3.217 6.666a1.494 1.494 0 0 0 1.344 2.145h26.953a.3.3 0 0 0 .271-.174l6.189-13.619a.296.296 0 0 0-.27-.42h-26.939a2.97 2.97 0 0 0-2.703 1.74l-.873 1.922 23.131-.031c.215 0 .357.221.27.418l-2.852 6.396a.302.302 0 0 1-.271.176l-17.238.012a.299.299 0 0 1-.271-.422l2.023-4.391a.297.297 0 0 0-.27-.422l-5.277.004zM310.971 124.875h29.266a.302.302 0 0 0 .262-.154l1.656-3.039a.298.298 0 0 0-.26-.438h-27.293a2.963 2.963 0 0 0-2.662 1.66l-.969 1.971zM322.125 126.512l-3.16 6.764c-.463.99.26 2.127 1.355 2.127h3.234a.299.299 0 0 0 .27-.174l3.785-8.299a.296.296 0 0 0-.27-.418h-5.214zM346.949 124.814h5.775l1.434-3.131a.297.297 0 0 0-.27-.42h-3.357a2.97 2.97 0 0 0-2.668 1.67l-.914 1.881zM346.092 126.557L343 133.262a1.496 1.496 0 0 0 1.357 2.121h3.287c.117 0 .221-.07.271-.174l3.762-8.232a.296.296 0 0 0-.271-.42h-5.314zM358.828 126.619l-3.217 6.666a1.494 1.494 0 0 0 1.344 2.145h26.953a.297.297 0 0 0 .271-.174l6.191-13.619a.297.297 0 0 0-.271-.42H363.16a2.968 2.968 0 0 0-2.701 1.74l-.873 1.922 23.129-.031c.215 0 .359.221.271.418l-2.854 6.396a.302.302 0 0 1-.271.176l-17.238.012a.297.297 0 0 1-.27-.422l2.023-4.391a.3.3 0 0 0-.271-.422l-5.277.004zM393.238 126.557l-3.09 6.705a1.495 1.495 0 0 0 1.357 2.121h3.285a.3.3 0 0 0 .271-.174l3.764-8.232a.297.297 0 0 0-.27-.42h-5.317z"/><path d="M394.096 124.346h5.912l13.877 11.02a.3.3 0 0 0 .184.064h5.617a.3.3 0 0 0 .271-.172l6.584-14.316a.298.298 0 0 0-.27-.424h-5.301a.299.299 0 0 0-.27.17l-4.209 8.875a.3.3 0 0 1-.453.107l-11.645-9.088a.29.29 0 0 0-.182-.064h-6.445c-1.154 0-2.205.67-2.691 1.717l-.979 2.111zM69.769 124.898l.894-1.904a2.983 2.983 0 0 1 2.707-1.721h27.021a.3.3 0 0 1 .268.432l-2.374 4.783a.3.3 0 0 1-.268.166h-4.592a.299.299 0 0 1-.264-.439l.455-.861a.299.299 0 0 0-.264-.439l-23.583-.017zM188.194 124.898l.893-1.904a2.983 2.983 0 0 1 2.707-1.721h27.021a.3.3 0 0 1 .267.432l-2.373 4.783a.3.3 0 0 1-.268.166h-4.592a.299.299 0 0 1-.264-.439l.455-.861a.299.299 0 0 0-.264-.439l-23.582-.017z"/></g></svg>
