<svg xmlns="http://www.w3.org/2000/svg" width="978" height="81"><path fill="#FFF" d="M19.206 31.275h157.992c2.063 0 3.435 2.133 2.58 4.01l-6.535 14.347a2.834 2.834 0 0 1-2.579 1.66H39.976a4.253 4.253 0 0 0-4.102 3.132l-.611 2.235a2.836 2.836 0 0 0 2.736 3.582l125.754-.062c2.042-.001 3.415 2.092 2.602 3.964l-6.173 14.211a2.834 2.834 0 0 1-2.604 1.705L10.375 79.85C4.2 79.841.093 73.461 2.642 67.836l16.564-36.561zM23.748 21.96h160.598a2.834 2.834 0 0 0 2.575-1.651l6.607-14.373c.864-1.88-.512-4.022-2.58-4.019l-147.312.24a17.006 17.006 0 0 0-15.478 10.018l-4.41 9.785zM800.206 31.275h157.992c2.063 0 3.436 2.133 2.58 4.01l-6.535 14.347a2.836 2.836 0 0 1-2.58 1.66H821.161a4.494 4.494 0 0 0-4.336 3.31l-.57 2.09a2.81 2.81 0 0 0 2.711 3.549l125.787-.062c2.043-.001 3.416 2.092 2.602 3.964l-6.172 14.211a2.836 2.836 0 0 1-2.605 1.705l-147.202-.209c-6.176-.009-10.283-6.389-7.734-12.014l16.564-36.561zM804.747 21.96h160.6a2.836 2.836 0 0 0 2.574-1.651l6.607-14.373c.863-1.88-.512-4.022-2.582-4.019l-147.311.24a17.009 17.009 0 0 0-15.479 10.018l-4.409 9.785zM214.822 30.645L197.407 67.96c-2.631 5.638 1.484 12.1 7.706 12.1h17.824c1.11 0 2.118-.647 2.579-1.657l11.738-25.728a2.836 2.836 0 0 1 2.575-1.658l127.804-.182a2.835 2.835 0 0 0 2.572-1.65l20.331-44.208c.864-1.878-.508-4.019-2.575-4.019h-148.28a17.007 17.007 0 0 0-15.538 10.091l-4.634 10.408H345.87c2.105 0 3.475 2.214 2.538 4.098l-1.391 2.795a4.252 4.252 0 0 1-3.809 2.357l-128.386-.062zM414.76 21.207h29.595c1.11 0 2.117-.648 2.579-1.657l6.66-14.581c.857-1.877-.515-4.012-2.579-4.012h-15.861a17.009 17.009 0 0 0-15.349 9.681l-5.045 10.569zM410.135 30.707l-17.102 37.308c-2.582 5.633 1.534 12.048 7.73 12.048h110.185s4.937.004 10.187-5.168l-.515 1.251c-.768 1.866.604 3.914 2.621 3.914h25.831c1.104 0 2.11-.643 2.573-1.647L585.213 5.73c.869-1.878-.504-4.023-2.572-4.023h-25.593a2.837 2.837 0 0 0-2.577 1.654l-25.447 55.555a2.834 2.834 0 0 1-2.596 1.654l-93.393-.585c-2.061-.013-3.42-2.152-2.556-4.023l9.799-21.232c.867-1.879-.505-4.023-2.573-4.023h-27.57zM606.259 30.707l-17.536 37.228c-2.656 5.64 1.459 12.128 7.693 12.128h17.886a2.834 2.834 0 0 0 2.584-1.672l11.561-25.7a2.834 2.834 0 0 1 2.584-1.672h93.178c2.068 0 3.439 2.143 2.574 4.021l-9.67 20.999c-.865 1.879.506 4.021 2.574 4.021h25.76a2.835 2.835 0 0 0 2.574-1.647l11.426-24.748s1.875-4.146-3.416-5.416c0 0 5.979-.417 10.354-9.417 3.367-6.924 11.395-25.392 14.918-33.542.811-1.871-.563-3.958-2.602-3.958H630.583a17.007 17.007 0 0 0-15.445 9.885l-4.723 10.24h127.666c2.1 0 3.471 2.202 2.543 4.086l-1.445 2.937a4.25 4.25 0 0 1-3.818 2.375l-129.102-.148z"/></svg>